<svg xmlns="http://www.w3.org/2000/svg" xmlns:xlink="http://www.w3.org/1999/xlink" width="19" height="16" viewBox="0 0 19 16"><defs><path id="tnyoa" d="M599.5 135.77a.94.94 0 0 1-.93-.96v-.43c0-.53.42-.96.93-.96s.93.43.93.96v.43c0 .53-.42.96-.93.96zm1.57-.43h6.42c.4 0 .79-.1 1.13-.26v4.37c0 .85-.68 1.55-1.51 1.55h-15.22c-.83 0-1.51-.7-1.51-1.55v-4.37c.34.16.73.26 1.13.26h6.42c.2.7.83 1.2 1.57 1.2.74 0 1.36-.5 1.57-1.2zm7.93-6.3v3.58c0 .86-.68 1.56-1.51 1.56h-6.35a1.7 1.7 0 0 0-.5-1.14l-.03-.03a1.64 1.64 0 0 0-.2-.17l-.1-.05-.18-.1-.16-.05-.14-.04a1.62 1.62 0 0 0-.66 0c-.05 0-.09.03-.14.04l-.16.05-.19.1-.08.05c-.08.05-.14.11-.21.17l-.03.03c-.3.29-.48.69-.5 1.14h-6.35c-.83 0-1.51-.7-1.51-1.56v-3.58c0-.86.7-1.55 1.57-1.55h3.64a2.9 2.9 0 0 1 2.83-2.5h2.91a2.9 2.9 0 0 1 2.84 2.5h3.64c.86 0 1.57.7 1.57 1.55zm-6.66-1.55c-.2-.6-.74-1.04-1.39-1.04h-2.9c-.65 0-1.2.44-1.39 1.04z"/></defs><g><g transform="translate(-590 -125)"><use fill="#fff" xlink:href="#tnyoa"/></g></g></svg>